<svg width="24" height="25" viewBox="0 0 24 25" fill="none" xmlns="http://www.w3.org/2000/svg">
<path d="M23.5312 7.5L12.5625 0.1875C12.1875 -0.046875 11.7656 -0.046875 11.3906 0.1875L0.421875 7.5C0.140625 7.6875 0 8.01562 0 8.34375V15.6562C0 16.0312 0.140625 16.3594 0.421875 16.5469L11.3906 23.8594C11.7656 24.0938 12.1875 24.0938 12.5625 23.8594L23.5312 16.5469C23.8125 16.3594 24 16.0312 24 15.6562V8.34375C24 8.01562 23.8125 7.6875 23.5312 7.5ZM13.0312 3L21.0938 8.34375L17.4844 10.7812L13.0312 7.78125V3ZM10.9688 3V7.78125L6.46875 10.7812L2.85938 8.34375L10.9688 3ZM2.0625 10.3125L4.64062 12L2.0625 13.7344V10.3125ZM10.9688 21.0469L2.85938 15.6562L6.46875 13.2656L10.9688 16.2656V21.0469ZM12 14.4375L8.34375 12L12 9.5625L15.6094 12L12 14.4375ZM13.0312 21.0469V16.2656L17.4844 13.2656L21.0938 15.6562L13.0312 21.0469ZM21.9375 13.7344L19.3125 12L21.9375 10.3125V13.7344Z" fill="#B2B2B2"/>
</svg>
