<svg width="167" height="58" viewBox="0 0 167 58" fill="none" xmlns="http://www.w3.org/2000/svg">
<path fill-rule="evenodd" clip-rule="evenodd" d="M29 0V11.6C19.3902 11.6 11.6 19.3902 11.6 29C11.6 38.6098 19.3902 46.4 29 46.4C38.6098 46.4 46.4 38.6098 46.4 29H58C58 45.0163 45.0163 58 29 58C12.9837 58 0 45.0163 0 29C0 12.9837 12.9837 0 29 0Z" fill="#5528FF"/>
<path fill-rule="evenodd" clip-rule="evenodd" d="M29 5.80005H52.2V29H40.6V17.4001H29V5.80005Z" fill="#5528FF"/>
<path d="M91.9324 29.304C91.9324 28.152 91.7804 27.336 91.4764 26.856C91.1884 26.376 90.6844 26.136 89.9644 26.136C89.7404 26.136 89.5084 26.152 89.2684 26.184C89.0284 26.2 88.7964 26.224 88.5724 26.256V36H84.9964V23.808C85.3004 23.728 85.6524 23.648 86.0524 23.568C86.4684 23.472 86.9004 23.392 87.3484 23.328C87.8124 23.248 88.2844 23.192 88.7644 23.16C89.2444 23.112 89.7164 23.088 90.1804 23.088C91.0924 23.088 91.8284 23.208 92.3884 23.448C92.9644 23.672 93.4364 23.944 93.8044 24.264C94.3164 23.896 94.9004 23.608 95.5564 23.4C96.2284 23.192 96.8444 23.088 97.4044 23.088C98.4124 23.088 99.2364 23.232 99.8764 23.52C100.532 23.792 101.052 24.184 101.436 24.696C101.82 25.208 102.084 25.816 102.228 26.52C102.372 27.224 102.444 28.008 102.444 28.872V36H98.8684V29.304C98.8684 28.152 98.7164 27.336 98.4124 26.856C98.1244 26.376 97.6204 26.136 96.9004 26.136C96.7084 26.136 96.4364 26.184 96.0844 26.28C95.7484 26.376 95.4684 26.496 95.2444 26.64C95.3564 27.008 95.4284 27.4 95.4604 27.816C95.4924 28.216 95.5084 28.648 95.5084 29.112V36H91.9324V29.304ZM110.516 33.504C110.868 33.504 111.204 33.496 111.524 33.48C111.844 33.464 112.1 33.44 112.292 33.408V30.696C112.148 30.664 111.932 30.632 111.644 30.6C111.356 30.568 111.092 30.552 110.852 30.552C110.516 30.552 110.196 30.576 109.892 30.624C109.604 30.656 109.348 30.728 109.124 30.84C108.9 30.952 108.724 31.104 108.596 31.296C108.468 31.488 108.404 31.728 108.404 32.016C108.404 32.576 108.588 32.968 108.956 33.192C109.34 33.4 109.86 33.504 110.516 33.504ZM110.228 23.04C111.284 23.04 112.164 23.16 112.868 23.4C113.572 23.64 114.132 23.984 114.548 24.432C114.98 24.88 115.284 25.424 115.46 26.064C115.636 26.704 115.724 27.416 115.724 28.2V35.64C115.212 35.752 114.5 35.88 113.588 36.024C112.676 36.184 111.572 36.264 110.276 36.264C109.46 36.264 108.716 36.192 108.044 36.048C107.388 35.904 106.82 35.672 106.34 35.352C105.86 35.016 105.492 34.584 105.236 34.056C104.98 33.528 104.852 32.88 104.852 32.112C104.852 31.376 104.996 30.752 105.284 30.24C105.588 29.728 105.988 29.32 106.484 29.016C106.98 28.712 107.548 28.496 108.188 28.368C108.828 28.224 109.492 28.152 110.18 28.152C110.644 28.152 111.052 28.176 111.404 28.224C111.772 28.256 112.068 28.304 112.292 28.368V28.032C112.292 27.424 112.108 26.936 111.74 26.568C111.372 26.2 110.732 26.016 109.82 26.016C109.212 26.016 108.612 26.064 108.02 26.16C107.428 26.24 106.916 26.36 106.484 26.52L106.028 23.64C106.236 23.576 106.492 23.512 106.796 23.448C107.116 23.368 107.46 23.304 107.828 23.256C108.196 23.192 108.58 23.144 108.98 23.112C109.396 23.064 109.812 23.04 110.228 23.04ZM125.893 29.304C125.893 28.152 125.741 27.336 125.437 26.856C125.149 26.376 124.645 26.136 123.925 26.136C123.701 26.136 123.469 26.152 123.229 26.184C122.989 26.2 122.757 26.224 122.533 26.256V36H118.957V23.808C119.261 23.728 119.613 23.648 120.013 23.568C120.429 23.472 120.861 23.392 121.309 23.328C121.773 23.248 122.245 23.192 122.725 23.16C123.205 23.112 123.677 23.088 124.141 23.088C125.053 23.088 125.789 23.208 126.349 23.448C126.925 23.672 127.397 23.944 127.765 24.264C128.277 23.896 128.861 23.608 129.517 23.4C130.189 23.192 130.805 23.088 131.365 23.088C132.373 23.088 133.197 23.232 133.837 23.52C134.493 23.792 135.013 24.184 135.397 24.696C135.781 25.208 136.045 25.816 136.189 26.52C136.333 27.224 136.405 28.008 136.405 28.872V36H132.829V29.304C132.829 28.152 132.677 27.336 132.373 26.856C132.085 26.376 131.581 26.136 130.861 26.136C130.669 26.136 130.397 26.184 130.045 26.28C129.709 26.376 129.429 26.496 129.205 26.64C129.317 27.008 129.389 27.4 129.421 27.816C129.453 28.216 129.469 28.648 129.469 29.112V36H125.893V29.304ZM151.461 29.664C151.461 30.656 151.317 31.568 151.029 32.4C150.741 33.216 150.325 33.92 149.781 34.512C149.237 35.088 148.581 35.536 147.813 35.856C147.061 36.176 146.213 36.336 145.269 36.336C144.341 36.336 143.493 36.176 142.725 35.856C141.973 35.536 141.325 35.088 140.781 34.512C140.237 33.92 139.813 33.216 139.509 32.4C139.205 31.568 139.053 30.656 139.053 29.664C139.053 28.672 139.205 27.768 139.509 26.952C139.829 26.136 140.261 25.44 140.805 24.864C141.365 24.288 142.021 23.84 142.773 23.52C143.541 23.2 144.373 23.04 145.269 23.04C146.181 23.04 147.013 23.2 147.765 23.52C148.533 23.84 149.189 24.288 149.733 24.864C150.277 25.44 150.701 26.136 151.005 26.952C151.309 27.768 151.461 28.672 151.461 29.664ZM147.813 29.664C147.813 28.56 147.589 27.696 147.141 27.072C146.709 26.432 146.085 26.112 145.269 26.112C144.453 26.112 143.821 26.432 143.373 27.072C142.925 27.696 142.701 28.56 142.701 29.664C142.701 30.768 142.925 31.648 143.373 32.304C143.821 32.944 144.453 33.264 145.269 33.264C146.085 33.264 146.709 32.944 147.141 32.304C147.589 31.648 147.813 30.768 147.813 29.664ZM154.231 23.808C154.839 23.632 155.623 23.472 156.583 23.328C157.543 23.168 158.551 23.088 159.607 23.088C160.679 23.088 161.567 23.232 162.271 23.52C162.991 23.792 163.559 24.184 163.975 24.696C164.391 25.208 164.687 25.816 164.863 26.52C165.039 27.224 165.127 28.008 165.127 28.872V36H161.551V29.304C161.551 28.152 161.399 27.336 161.095 26.856C160.791 26.376 160.223 26.136 159.391 26.136C159.135 26.136 158.863 26.152 158.575 26.184C158.287 26.2 158.031 26.224 157.807 26.256V36H154.231V23.808Z" fill="#202020"/>
</svg>
