<svg width="20" height="20" viewBox="0 0 20 20" fill="none" xmlns="http://www.w3.org/2000/svg">
<path d="M9.80527 5.80136C7.58847 5.80136 5.79941 7.59042 5.79941 9.80722C5.79941 12.024 7.58847 13.8131 9.80527 13.8131C12.0221 13.8131 13.8111 12.024 13.8111 9.80722C13.8111 7.59042 12.0221 5.80136 9.80527 5.80136ZM9.80527 12.4107C8.37168 12.4107 7.20175 11.2408 7.20175 9.80722C7.20175 8.37363 8.37168 7.20371 9.80527 7.20371C11.2389 7.20371 12.4088 8.37363 12.4088 9.80722C12.4088 11.2408 11.2389 12.4107 9.80527 12.4107ZM13.9752 4.70371C13.4576 4.70371 13.0396 5.12167 13.0396 5.63925C13.0396 6.15683 13.4576 6.5748 13.9752 6.5748C14.4928 6.5748 14.9107 6.15878 14.9107 5.63925C14.9109 5.51635 14.8868 5.39463 14.8398 5.28105C14.7929 5.16748 14.724 5.06428 14.6371 4.97738C14.5502 4.89047 14.447 4.82157 14.3334 4.77461C14.2198 4.72765 14.0981 4.70355 13.9752 4.70371ZM17.6139 9.80722C17.6139 8.7291 17.6236 7.66074 17.5631 6.58457C17.5025 5.33457 17.2174 4.22519 16.3033 3.31113C15.3873 2.39511 14.2799 2.11191 13.0299 2.05136C11.9518 1.99082 10.8834 2.00058 9.80722 2.00058C8.7291 2.00058 7.66074 1.99082 6.58457 2.05136C5.33457 2.11191 4.22519 2.39707 3.31113 3.31113C2.39511 4.22714 2.11191 5.33457 2.05136 6.58457C1.99082 7.66269 2.00058 8.73105 2.00058 9.80722C2.00058 10.8834 1.99082 11.9537 2.05136 13.0299C2.11191 14.2799 2.39707 15.3893 3.31113 16.3033C4.22714 17.2193 5.33457 17.5025 6.58457 17.5631C7.66269 17.6236 8.73105 17.6139 9.80722 17.6139C10.8853 17.6139 11.9537 17.6236 13.0299 17.5631C14.2799 17.5025 15.3893 17.2174 16.3033 16.3033C17.2193 15.3873 17.5025 14.2799 17.5631 13.0299C17.6256 11.9537 17.6139 10.8853 17.6139 9.80722ZM15.8951 14.4127C15.7525 14.7682 15.5807 15.0338 15.3053 15.3072C15.0299 15.5826 14.7662 15.7545 14.4107 15.8971C13.3834 16.3053 10.9439 16.2135 9.80527 16.2135C8.6666 16.2135 6.22519 16.3053 5.19785 15.899C4.84238 15.7564 4.57675 15.5846 4.30332 15.3092C4.02793 15.0338 3.85605 14.7701 3.71347 14.4146C3.30722 13.3853 3.39902 10.9459 3.39902 9.80722C3.39902 8.66855 3.30722 6.22714 3.71347 5.1998C3.85605 4.84433 4.02793 4.57871 4.30332 4.30527C4.57871 4.03183 4.84238 3.858 5.19785 3.71542C6.22519 3.30917 8.6666 3.40097 9.80527 3.40097C10.9439 3.40097 13.3853 3.30917 14.4127 3.71542C14.7682 3.858 15.0338 4.02988 15.3072 4.30527C15.5826 4.58066 15.7545 4.84433 15.8971 5.1998C16.3033 6.22714 16.2115 8.66855 16.2115 9.80722C16.2115 10.9459 16.3033 13.3853 15.8951 14.4127Z" fill="white"/>
</svg>
