<svg width="14" height="14" viewBox="0 0 14 14" fill="none" xmlns="http://www.w3.org/2000/svg">
<g clip-path="url(#clip0)">
<path d="M3.1782 13.999V4.55325H0.177181V13.999H3.1782ZM1.67808 3.26282C2.72459 3.26282 3.37599 2.53749 3.37599 1.63107C3.35649 0.704217 2.72463 -0.000976562 1.69794 -0.000976562C0.671409 -0.000976562 0.00012207 0.704231 0.00012207 1.63107C0.00012207 2.53753 0.651363 3.26282 1.65849 3.26282H1.67808ZM4.83926 13.999H7.84028V8.72405C7.84028 8.44174 7.85978 8.15972 7.93903 7.95791C8.15598 7.39387 8.64976 6.80967 9.47877 6.80967C10.5647 6.80967 10.9992 7.67588 10.9992 8.94568V13.999H14V8.58284C14 5.68147 12.5194 4.33149 10.545 4.33149C8.92602 4.33149 8.21521 5.2782 7.82031 5.923H7.84035V4.55306H4.83932C4.87871 5.4394 4.83926 13.999 4.83926 13.999Z" fill="white"/>
</g>
<defs>
<clipPath id="clip0">
<rect width="14" height="14" fill="white"/>
</clipPath>
</defs>
</svg>
