<svg width="23" height="16" viewBox="0 0 23 16" fill="none" xmlns="http://www.w3.org/2000/svg">
<path d="M22.2223 1.87201C21.4051 2.17973 20.5158 2.4012 19.5997 2.48746C20.5508 1.99425 21.263 1.21506 21.6027 0.296079C20.7103 0.759506 19.7326 1.08447 18.7131 1.25655C18.287 0.858905 17.7716 0.542119 17.1991 0.325936C16.6266 0.109754 16.0093 -0.0011931 15.3855 9.67564e-06C12.8617 9.67564e-06 10.8321 1.78575 10.8321 3.97713C10.8321 4.28485 10.8748 4.59258 10.9442 4.88865C7.16529 4.71613 3.79496 3.14021 1.55431 0.72736C1.14603 1.33609 0.932085 2.02919 0.934719 2.73457C0.934719 4.11467 1.73858 5.33158 2.9644 6.04728C2.242 6.02244 1.53653 5.84912 0.905343 5.5414V5.59035C0.905343 7.52296 2.47033 9.12453 4.55609 9.49287C4.16447 9.58167 3.7616 9.6271 3.35698 9.62808C3.06054 9.62808 2.78012 9.60244 2.49704 9.56747C3.07389 11.1434 4.75372 12.288 6.75402 12.3253C5.18903 13.3954 3.22879 14.0248 1.1003 14.0248C0.718399 14.0248 0.365876 14.0132 0 13.9759C2.01899 15.1065 4.41455 15.7593 6.99437 15.7593C15.3695 15.7593 19.9523 9.70268 19.9523 4.44571C19.9523 4.2732 19.9523 4.10068 19.9389 3.92817C20.8256 3.36168 21.6027 2.65997 22.2223 1.87201Z" fill="white"/>
</svg>
